<?xml version="1.0" standalone="no"?>
<!DOCTYPE svg PUBLIC "-//W3C//DTD SVG 20010904//EN"
 "http://www.w3.org/TR/2001/REC-SVG-20010904/DTD/svg10.dtd">
<svg version="1.0" xmlns="http://www.w3.org/2000/svg"
 width="500.000000pt" height="500.000000pt" viewBox="0 0 500.000000 500.000000"
 preserveAspectRatio="xMidYMid meet">

<g transform="translate(0.000000,500.000000) scale(0.100000,-0.100000)"
fill="#000000" stroke="none">
<path d="M0 2500 l0 -2500 2500 0 2500 0 0 2500 0 2500 -2500 0 -2500 0 0
-2500z m2523 1393 c-7 -2 -19 -2 -25 0 -7 3 -2 5 12 5 14 0 19 -2 13 -5z
m-200 -10 c-7 -2 -19 -2 -25 0 -7 3 -2 5 12 5 14 0 19 -2 13 -5z m300 0 c-13
-2 -35 -2 -50 0 -16 2 -5 4 22 4 28 0 40 -2 28 -4z m-376 -9 c-3 -3 -12 -4
-19 -1 -8 3 -5 6 6 6 11 1 17 -2 13 -5z m446 -1 c-7 -2 -21 -2 -30 0 -10 3 -4
5 12 5 17 0 24 -2 18 -5z m-506 -9 c-3 -3 -12 -4 -19 -1 -8 3 -5 6 6 6 11 1
17 -2 13 -5z m593 -4 c20 -6 21 -8 5 -8 -11 0 -33 4 -50 8 -27 7 -27 8 -5 8
14 0 36 -4 50 -8z m57 -16 c-3 -3 -12 -4 -19 -1 -8 3 -5 6 6 6 11 1 17 -2 13
-5z m190 -64 c93 -40 257 -132 268 -150 4 -6 -17 5 -47 23 -72 47 -207 114
-298 149 -41 16 -61 26 -45 23 17 -4 71 -24 122 -45z m-513 -62 c3 -7 7 -26
11 -43 l7 -30 15 38 c17 41 40 49 47 15 12 -60 12 -88 -1 -88 -7 0 -13 11 -13
24 0 37 -17 40 -29 6 -5 -17 -14 -30 -19 -30 -12 0 -22 24 -22 51 0 10 -4 19
-10 19 -5 0 -10 -10 -10 -22 0 -31 -15 -54 -25 -39 -11 19 15 111 31 111 8 0
16 -6 18 -12z m-226 -55 c28 -43 34 -79 9 -54 -17 17 -48 13 -63 -6 -19 -27
-24 -13 -13 37 19 87 24 89 67 23z m532 -22 l5 -43 18 31 c30 51 49 41 45 -24
-2 -31 -7 -54 -13 -53 -5 2 -9 19 -9 38 l2 34 -18 -22 c-10 -12 -20 -28 -22
-34 -8 -24 -28 4 -29 40 l0 37 -16 -32 c-9 -18 -23 -33 -30 -33 -18 0 -17 3
13 61 14 28 30 49 37 46 7 -2 14 -23 17 -46z m-1160 5 c0 -2 -8 -10 -17 -17
-16 -13 -17 -12 -4 4 13 16 21 21 21 13z m386 -33 c0 -20 8 -39 20 -48 19 -14
19 -14 -1 -15 -12 0 -26 5 -33 12 -9 9 -12 7 -12 -10 0 -37 -15 -24 -34 29
-21 57 -13 72 34 67 21 -3 25 -8 26 -35z m-426 3 c0 -2 -8 -10 -17 -17 -16
-13 -17 -12 -4 4 13 16 21 21 21 13z m1805 -90 c45 -44 46 -46 6 -11 -25 22
-64 55 -86 73 -33 28 -34 30 -6 11 18 -12 57 -45 86 -73z m-1855 51 c0 -2 -10
-12 -22 -23 l-23 -19 19 23 c18 21 26 27 26 19z m1493 -52 c-15 -30 -31 -51
-36 -46 -11 11 33 101 50 101 9 0 4 -17 -14 -55z m-1243 6 c0 -5 -12 -11 -27
-13 -24 -2 -28 -8 -28 -33 0 -34 25 -45 52 -23 14 11 13 13 -8 18 l-24 6 23
13 c41 22 60 -20 23 -53 -27 -25 -72 -17 -90 15 -13 24 -13 29 2 53 12 18 26
26 47 26 17 0 30 -4 30 -9z m1431 -93 c0 -42 0 -42 16 -20 16 23 33 29 33 11
0 -19 -61 -89 -72 -83 -5 3 -7 24 -3 48 l6 41 -24 -29 c-13 -17 -27 -25 -30
-19 -7 11 49 93 64 93 5 0 9 -19 10 -42z m-1810 15 c-5 -10 -24 -31 -42 -48
-29 -27 -29 -25 7 17 42 51 50 58 35 31z m2129 -68 c13 -14 21 -25 18 -25 -2
0 -15 11 -28 25 -13 14 -21 25 -18 25 2 0 15 -11 28 -25z m-2200 -19 c0 -2 -8
-10 -17 -17 -16 -13 -17 -12 -4 4 13 16 21 21 21 13z m244 -12 c35 -34 6 -94
-44 -94 -33 0 -52 21 -52 55 0 14 5 32 12 40 16 20 64 19 84 -1z m1858 -81
c19 -17 25 -63 8 -63 -5 0 -10 8 -10 19 0 24 -25 45 -45 37 -21 -7 -30 -35
-19 -53 12 -19 30 -16 26 5 -3 14 1 13 19 -5 25 -25 24 -27 -8 -37 -32 -10
-77 35 -68 67 14 46 63 61 97 30z m-2045 -123 c4 -13 14 -20 30 -20 22 0 24
-2 13 -15 -7 -8 -22 -15 -34 -16 -11 0 -15 -3 -8 -6 6 -2 12 -11 12 -19 0 -13
-4 -13 -28 2 -16 9 -38 24 -50 33 -21 15 -21 18 -7 39 21 28 65 30 72 2z
m1170 -159 c71 -33 92 -104 50 -173 -31 -51 -62 -72 -178 -123 -57 -25 -119
-58 -138 -73 -36 -29 -36 -30 -39 -114 -3 -96 7 -134 40 -148 16 -6 -11 -9
-87 -9 -73 0 -103 3 -88 9 36 15 43 68 43 327 0 243 -5 286 -37 311 -14 10 22
12 188 12 179 0 209 -3 246 -19z m-1447 -25 c-23 -60 -50 -187 -58 -275 -19
-184 13 -385 88 -563 l28 -68 -31 -15 c-24 -12 -32 -13 -38 -3 -9 14 -44 156
-61 248 -17 96 -14 337 6 450 17 99 64 265 72 257 2 -2 0 -16 -6 -31z m150
-11 c7 -8 10 -24 7 -35 -3 -13 1 -21 14 -25 10 -4 16 -12 13 -20 -5 -12 -15
-10 -55 10 -27 14 -49 29 -49 33 0 15 31 52 44 52 8 0 19 -7 26 -15z m2400
-49 c0 -8 -18 -21 -40 -30 -36 -14 -39 -18 -30 -36 8 -16 8 -20 -4 -20 -14 0
-26 20 -26 45 0 9 56 41 98 54 1 1 2 -5 2 -13z m197 -158 c-3 -8 -6 -5 -6 6
-1 11 2 17 5 13 3 -3 4 -12 1 -19z m10 -50 c-3 -7 -5 -2 -5 12 0 14 2 19 5 13
2 -7 2 -19 0 -25z m-127 -17 c0 -9 -75 -31 -104 -31 -30 0 -16 18 22 28 48 13
82 14 82 3z m137 -38 c-3 -10 -5 -4 -5 12 0 17 2 24 5 18 2 -7 2 -21 0 -30z
m10 -75 c-2 -13 -4 -5 -4 17 -1 22 1 32 4 23 2 -10 2 -28 0 -40z m-1413 18
c-18 -14 -19 -31 -22 -321 l-3 -307 119 4 c112 3 122 5 167 33 27 17 65 51 84
75 19 25 32 38 29 30 -3 -8 -16 -48 -29 -87 l-23 -73 -255 1 c-145 0 -247 4
-236 9 47 19 50 31 54 263 4 259 -3 341 -30 368 -19 19 -18 19 73 19 82 0 90
-2 72 -14z m1423 -243 c-2 -38 -3 -7 -3 67 0 74 1 105 3 68 2 -38 2 -98 0
-135z m-130 141 c9 -23 -10 -49 -35 -49 -12 0 -24 -4 -28 -8 -13 -13 -42 -7
-48 9 -3 9 -6 27 -6 40 0 22 3 24 55 24 42 0 57 -4 62 -16z m-24 -224 c12 0
17 -8 17 -30 0 -38 -28 -55 -58 -34 -17 11 -26 12 -42 4 -16 -8 -20 -8 -20 4
0 8 10 18 22 22 20 6 20 8 5 19 -27 20 -20 28 21 21 20 -3 45 -6 55 -6z m144
-47 c-3 -10 -5 -4 -5 12 0 17 2 24 5 18 2 -7 2 -21 0 -30z m-10 -55 c-3 -8 -6
-5 -6 6 -1 11 2 17 5 13 3 -3 4 -12 1 -19z m-174 -188 c-4 -4 -34 -11 -65 -15
-61 -7 -77 4 -37 26 18 9 20 17 14 46 l-6 36 51 -43 c28 -23 48 -46 43 -50z
m-2443 -146 c0 -8 4 -14 9 -14 5 0 17 -12 27 -27 17 -27 17 -28 -2 -14 -10 7
-6 2 9 -13 15 -14 26 -26 23 -26 -3 0 0 -13 5 -30 6 -16 15 -27 20 -24 5 3 9
0 9 -5 0 -6 6 -11 14 -11 7 0 16 -14 20 -31 4 -22 10 -30 21 -26 8 4 17 2 20
-4 4 -5 11 -6 17 -3 7 4 8 2 4 -5 -6 -9 -11 -9 -21 -1 -20 16 -25 -10 -7 -37
8 -13 11 -23 7 -23 -4 0 -2 -7 5 -15 12 -14 15 -14 31 1 11 10 19 14 19 9 0
-4 7 -2 15 5 8 7 13 16 10 20 -3 5 -1 11 4 14 7 5 8 -22 1 -31 -2 -2 -3 -6 -4
-10 -1 -5 -10 -19 -20 -33 -11 -15 -16 -18 -12 -7 5 14 2 16 -13 8 -10 -6 -21
-8 -25 -6 -3 3 -4 2 -2 -1 2 -3 6 -4 9 -2 10 7 45 -34 41 -47 -8 -19 21 -13
45 9 11 10 18 26 16 37 -2 10 0 21 4 23 4 3 6 -12 5 -32 -1 -20 -3 -37 -4 -37
-1 0 -3 -13 -4 -28 -2 -16 1 -26 8 -24 6 2 11 13 11 24 0 12 3 24 6 27 3 3 5
-8 5 -26 -1 -17 4 -33 10 -35 7 -2 11 7 9 26 l-2 30 63 -32 c35 -17 62 -33 60
-35 -2 -2 -27 8 -55 22 -28 14 -52 26 -54 26 -4 0 -1 -53 3 -57 1 -2 3 -11 4
-20 1 -10 5 -25 10 -33 7 -12 7 -13 -5 -2 -8 7 -14 23 -14 34 0 12 -5 23 -12
25 -8 3 -11 -3 -8 -17 3 -18 -3 -15 -44 19 -60 50 -163 160 -218 232 -51 67
-143 219 -143 237 0 18 42 32 58 20 6 -6 12 -17 12 -24z m2311 -30 c39 -22 47
-30 39 -44 -23 -44 -67 -50 -77 -11 -3 13 -11 17 -29 13 -19 -3 -23 -1 -18 12
3 9 18 16 33 16 22 1 24 2 9 11 -17 10 -25 29 -12 29 4 0 28 -12 55 -26z
m-167 -209 c11 -8 35 -15 54 -15 19 0 31 -4 27 -10 -3 -5 -18 -10 -32 -10 -22
0 -24 -3 -19 -24 3 -14 2 -28 -4 -31 -6 -4 -13 7 -16 24 -4 16 -15 38 -25 47
-34 30 -21 46 15 19z m-1939 -40 c1 0 10 7 21 15 15 11 16 11 7 0 -19 -21 -40
-20 -60 3 l-18 22 24 -20 c13 -11 24 -20 26 -20z m392 9 c-3 -3 -12 -4 -19 -1
-8 3 -5 6 6 6 11 1 17 -2 13 -5z m-312 -31 c-2 -10 -4 -19 -5 -20 -2 -2 -3
-11 -4 -20 -2 -32 -16 -45 -32 -32 -13 10 -11 16 12 41 15 15 24 28 20 28 -4
0 -4 5 -1 10 9 15 14 12 10 -7z m262 -19 c-3 -3 -12 -4 -19 -1 -8 3 -5 6 6 6
11 1 17 -2 13 -5z m-97 -104 c8 -5 11 -10 5 -10 -5 0 -17 5 -25 10 -8 5 -10
10 -5 10 6 0 17 -5 25 -10z m50 -20 c8 -5 11 -10 5 -10 -5 0 -17 5 -25 10 -8
5 -10 10 -5 10 6 0 17 -5 25 -10z m-4 -58 c-5 -4 -106 46 -106 53 0 3 25 -7
55 -22 30 -15 53 -29 51 -31z m-76 -7 c0 -2 -8 -2 -17 1 -12 4 -10 -1 7 -15
21 -18 22 -20 5 -15 l-20 6 20 -17 c11 -9 29 -23 40 -31 27 -20 -3 -6 -37 18
-15 11 -27 22 -27 26 1 4 0 9 -1 12 -1 3 -3 13 -5 22 -3 15 0 16 16 8 10 -6
19 -13 19 -15z m86 -23 c-5 -4 -86 36 -86 43 0 3 20 -5 45 -17 24 -12 43 -23
41 -26z m44 -78 c0 -2 -9 0 -20 6 -11 6 -20 13 -20 16 0 2 9 0 20 -6 11 -6 20
-13 20 -16z m1445 10 c-11 -9 -74 -43 -140 -75 -119 -58 -260 -105 -339 -114
-35 -4 -37 -3 -11 4 23 7 25 9 10 11 -11 1 -23 2 -27 1 -4 0 -5 6 -2 14 4 8 9
13 13 11 3 -2 15 0 26 5 17 7 16 8 -8 8 -16 1 -26 5 -22 11 4 6 10 8 15 5 4
-3 13 2 20 10 9 11 35 15 100 15 106 0 212 26 306 74 77 39 89 43 59 20z
m-1379 -72 c-5 -4 -66 26 -66 33 0 3 16 -3 35 -12 19 -9 33 -18 31 -21z"/>
<path d="M2247 3661 c-3 -14 0 -21 9 -21 16 0 18 9 5 28 -6 10 -10 9 -14 -7z"/>
<path d="M2000 3615 c0 -8 7 -15 15 -15 8 0 15 7 15 15 0 8 -7 15 -15 15 -8 0
-15 -7 -15 -15z"/>
<path d="M1547 3344 c-15 -16 -7 -53 14 -59 30 -10 58 19 43 43 -12 18 -45 28
-57 16z"/>
<path d="M1375 3141 c-7 -12 12 -24 25 -16 11 7 4 25 -10 25 -5 0 -11 -4 -15
-9z"/>
<path d="M2290 2803 l0 -196 23 20 c12 11 63 48 114 81 103 69 142 114 150
170 4 33 1 44 -23 71 -35 38 -79 50 -186 51 l-78 0 0 -197z"/>
<path d="M1257 2936 c-3 -8 1 -17 10 -20 20 -8 27 -1 20 19 -8 19 -23 20 -30
1z"/>
<path d="M3762 2469 c2 -6 8 -10 13 -10 5 0 11 4 13 10 2 6 -4 11 -13 11 -9 0
-15 -5 -13 -11z"/>
<path d="M3712 2459 c2 -6 8 -10 13 -10 5 0 11 4 13 10 2 6 -4 11 -13 11 -9 0
-15 -5 -13 -11z"/>
<path d="M3750 2225 c0 -8 7 -15 15 -15 8 0 15 7 15 15 0 8 -7 15 -15 15 -8 0
-15 -7 -15 -15z"/>
<path d="M3675 1990 c-3 -5 3 -10 15 -10 12 0 18 5 15 10 -3 6 -10 10 -15 10
-5 0 -12 -4 -15 -10z"/>
<path d="M1515 1509 c-3 -4 2 -6 10 -5 21 3 28 13 10 13 -9 0 -18 -4 -20 -8z"/>
<path d="M1575 1430 c-10 -11 -23 -17 -29 -13 -6 3 0 -6 13 -20 14 -15 25 -27
26 -27 1 0 1 12 0 28 -1 15 2 33 8 40 15 19 2 14 -18 -8z m2 -25 c0 -8 -4 -12
-9 -9 -5 3 -6 10 -3 15 9 13 12 11 12 -6z"/>
<path d="M1606 1372 c-3 -5 1 -15 8 -21 11 -10 14 -9 12 3 -3 21 -13 29 -20
18z"/>
<path d="M3595 1760 c-9 -15 4 -30 20 -23 8 3 15 9 15 13 0 12 -29 20 -35 10z"/>
<path d="M1551 1476 c-8 -10 -9 -16 -1 -21 5 -3 10 -5 11 -3 4 18 7 38 4 38
-1 0 -8 -6 -14 -14z"/>
</g>
</svg>
